<svg id="Capa_1" data-name="Capa 1" xmlns="http://www.w3.org/2000/svg" xmlns:xlink="http://www.w3.org/1999/xlink" viewBox="0 0 763.86 599.97"><defs><style>.cls-1{fill:#f7f7f7;}.cls-2{fill:#eaeaea;}.cls-3{fill:none;}.cls-4{fill:url(#Degradado_sin_nombre_2208);}.cls-5{fill:url(#Degradado_sin_nombre_2208-2);}.cls-6{fill:url(#Degradado_sin_nombre_2208-3);}.cls-7{fill:url(#Degradado_sin_nombre_2208-4);}.cls-8{fill:url(#Degradado_sin_nombre_2208-5);}.cls-9{fill:url(#Degradado_sin_nombre_2208-6);}.cls-10{fill:url(#Degradado_sin_nombre_2208-7);}.cls-11{fill:url(#Degradado_sin_nombre_2203);}</style><linearGradient id="Degradado_sin_nombre_2208" x1="108.77" y1="516.16" x2="116.96" y2="520.88" gradientUnits="userSpaceOnUse"><stop offset="0.05" stop-color="#f7f7f7"/><stop offset="0.23" stop-color="#f4f4f4"/><stop offset="0.34" stop-color="#ececec"/><stop offset="0.35" stop-color="#eaeaea"/></linearGradient><linearGradient id="Degradado_sin_nombre_2208-2" x1="801" y1="754.14" x2="801" y2="754.14" xlink:href="#Degradado_sin_nombre_2208"/><linearGradient id="Degradado_sin_nombre_2208-3" x1="636.36" y1="376.21" x2="1274.61" y2="744.7" xlink:href="#Degradado_sin_nombre_2208"/><linearGradient id="Degradado_sin_nombre_2208-4" x1="807.02" y1="587.08" x2="807.02" y2="587.08" xlink:href="#Degradado_sin_nombre_2208"/><linearGradient id="Degradado_sin_nombre_2208-5" x1="781.7" y1="899" x2="781.7" y2="899" xlink:href="#Degradado_sin_nombre_2208"/><linearGradient id="Degradado_sin_nombre_2208-6" x1="851.18" y1="778.95" x2="851.18" y2="778.95" xlink:href="#Degradado_sin_nombre_2208"/><linearGradient id="Degradado_sin_nombre_2208-7" x1="61.85" y1="411.92" x2="168.74" y2="473.63" xlink:href="#Degradado_sin_nombre_2208"/><linearGradient id="Degradado_sin_nombre_2203" x1="949" y1="754.14" x2="949" y2="754.14" gradientUnits="userSpaceOnUse"><stop offset="0.05" stop-color="#f7f7f7"/><stop offset="0.22" stop-color="#f3f3f3"/><stop offset="0.35" stop-color="#eaeaea"/></linearGradient></defs><title>lOGO2Fin</title><path class="cls-1" d="M1365.32,405l-90.38,131.24L1082.81,825.89c-2.92,4.41,1.1,9.71,7.38,9.71H1248.4a8.83,8.83,0,0,0,7.38-3.54L1452,536.25h0Z" transform="translate(-688.14 -235.62)"/><path class="cls-2" d="M1255.78,239.17a8.83,8.83,0,0,0-7.39-3.55H1090.17c-6.28,0-10.3,5.29-7.39,9.7L1272,531.86,1365.32,405Z" transform="translate(-688.14 -235.62)"/><path class="cls-3" d="M1028.49,452.83a134.29,134.29,0,0,0-146.22-28.65,135.15,135.15,0,0,0-70.94,70.95,135.82,135.82,0,0,0,0,103.91,135.15,135.15,0,0,0,70.94,71,132.85,132.85,0,0,0,146.22-28.65,139.77,139.77,0,0,0,28.65-42.3,135.94,135.94,0,0,0,0-103.91A139.77,139.77,0,0,0,1028.49,452.83Z" transform="translate(-688.14 -235.62)"/><polygon class="cls-4" points="112.87 518.52 112.87 518.52 112.87 518.52 112.87 518.52"/><path class="cls-5" d="M801,754.14" transform="translate(-688.14 -235.62)"/><path class="cls-6" d="M801,756.67,780.1,355.06a249.42,249.42,0,0,1,58.39-34.84,248,248,0,0,1,191.49,0A245.07,245.07,0,0,1,1161.1,451.34a248,248,0,0,1,0,191.49A245.07,245.07,0,0,1,1030,774a248.67,248.67,0,0,1-178.8,5,319.43,319.43,0,0,1-42.62-19.41L801,593c6.88,15.77,25.57,39.22,38.49,49.75,13.51,11,27,20.36,42.77,27.24a132.85,132.85,0,0,0,146.22-28.65,139.77,139.77,0,0,0,28.65-42.3,135.94,135.94,0,0,0,0-103.91,139.77,139.77,0,0,0-28.65-42.3,134.29,134.29,0,0,0-146.22-28.65,135.15,135.15,0,0,0-70.94,70.95,134.78,134.78,0,0,0-10.33,52c0,18-1.65,27.24,0,45.91" transform="translate(-688.14 -235.62)"/><path class="cls-7" d="M807,587.08" transform="translate(-688.14 -235.62)"/><path class="cls-8" d="M781.7,899" transform="translate(-688.14 -235.62)"/><path class="cls-9" d="M851.18,779" transform="translate(-688.14 -235.62)"/><line class="cls-10" x1="112.87" y1="361.71" x2="112.87" y2="521.04"/><path class="cls-1" d="M776.39,357.9q-41.53,34.22-64.66,78.44-23.6,45.77-23.59,95.75V830.46c0,2,2,3.65,4.48,3.65h104.3A4.61,4.61,0,0,0,801,832V340.06A301.14,301.14,0,0,0,776.39,357.9Z" transform="translate(-688.14 -235.62)"/><path class="cls-11" d="M949,754.14" transform="translate(-688.14 -235.62)"/></svg>